<svg t="1693298055423" class="icon" viewBox="0 0 1024 1024" version="1.1" p-id="8967" width="200" height="200" xmlns="http://www.w3.org/2000/svg">
    <path d="M86.96 153.58m-86.15 0a86.15 86.15 0 1 0 172.3 0 86.15 86.15 0 1 0-172.3 0Z" fill="#3b3b3b" p-id="8970"></path>
    <path d="M705.96 86.58m-86.15 0a86.15 86.15 0 1 0 172.3 0 86.15 86.15 0 1 0-172.3 0Z" fill="#3b3b3b" p-id="8971"></path>
    <path d="M937.96 937.58m-86.15 0a86.15 86.15 0 1 0 172.3 0 86.15 86.15 0 1 0-172.3 0Z" fill="#3b3b3b" p-id="8972"></path>
    <path style="fill: rgb(216, 216, 216); stroke: rgb(0, 0, 0); stroke-dasharray: 30, 60; stroke-miterlimit: 1; stroke-width: 25px;" d="M 130.601 153.716 L 703.855 92.461"></path>
    <path d="M 255.954 640.289 C 255.954 706.607 327.746 748.056 385.179 714.897 C 411.834 699.508 428.254 671.067 428.254 640.289 C 428.254 573.971 356.462 532.522 299.029 565.681 C 272.374 581.07 255.954 609.511 255.954 640.289 L 255.954 640.289 Z" fill="#3b3b3b" p-id="8972"></path>
    <path style="fill: rgb(216, 216, 216); stroke: rgb(0, 0, 0); stroke-width: 25px; stroke-miterlimit: 1; stroke-dasharray: 30, 60;" d="M 699.233 93.616 L 335.169 642.601"></path>
    <path style="fill: rgb(216, 216, 216); stroke: rgb(0, 0, 0); stroke-miterlimit: 1; stroke-width: 25px; stroke-dasharray: 30, 60;" d="M 352.506 654.158 L 930.384 933.851"></path>
  </svg>