<svg t="1693298055423" class="icon" viewBox="0 0 1024 1024" version="1.1" p-id="8967" width="200" height="200" xmlns="http://www.w3.org/2000/svg">
    <path d="M 946.211 944.941 L 89.375 769.456 L 91.686 159.718 L 707.722 80.821 L 946.211 944.941 Z" p-id="8968" style="fill: none; stroke: rgb(0, 0, 0); paint-order: stroke; stroke-width: 25px; stroke-miterlimit: 1; stroke-dasharray: 30, 60;"></path>
    <path d="M86.96 775.58m-86.15 0a86.15 86.15 0 1 0 172.3 0 86.15 86.15 0 1 0-172.3 0Z" fill="#3b3b3b" p-id="8969"></path>
    <path d="M86.96 153.58m-86.15 0a86.15 86.15 0 1 0 172.3 0 86.15 86.15 0 1 0-172.3 0Z" fill="#3b3b3b" p-id="8970"></path>
    <path d="M705.96 86.58m-86.15 0a86.15 86.15 0 1 0 172.3 0 86.15 86.15 0 1 0-172.3 0Z" fill="#3b3b3b" p-id="8971"></path>
    <path d="M937.96 937.58m-86.15 0a86.15 86.15 0 1 0 172.3 0 86.15 86.15 0 1 0-172.3 0Z" fill="#3b3b3b" p-id="8972"></path>
  </svg>